<?xml version="1.0" encoding="UTF-8"?><svg id="Capa_1" xmlns="http://www.w3.org/2000/svg" viewBox="0 0 827.5 808.33"><defs><style>.cls-1{fill:#64892f;}.cls-1,.cls-2,.cls-3{fill-rule:evenodd;}.cls-1,.cls-2,.cls-3,.cls-4,.cls-5{stroke-width:0px;}.cls-2{fill:#ef4d3c;}.cls-6{stroke:#83bf4f;}.cls-6,.cls-7,.cls-8{stroke-miterlimit:10;}.cls-6,.cls-8{fill:none;stroke-width:1.88px;}.cls-7{fill:#ffc9f3;stroke:#ffc9f3;}.cls-3{fill:#d33b23;}.cls-8{stroke:#9fc427;}.cls-4{fill:#a51000;}.cls-5{fill:#ce0f00;}</style></defs><circle class="cls-7" cx="423.34" cy="404.16" r="403.66"/><path class="cls-3" d="M152.89,329.28c3.51,9.81-3.86,17.28-12.05,18.63-8.19,1.35-17.21-3.36-17.62-13.74-.53-13.77,9.45-12.15,13.06-12.74,5.9-.97,12.12-4.67,16.6,7.86Z"/><path class="cls-6" d="M137.92,324.38c-1.96-2.21-9.9-9.33-7.18-23.47"/><path class="cls-2" d="M131.79,332.04c2.04,11.61-7.63,18.6-17.04,18.6s-18.59-6.92-17.04-18.6c2.05-15.49,12.9-11.84,17.04-11.84,6.78,0,14.44-2.99,17.04,11.84Z"/><path class="cls-8" d="M114.75,323.5c0-3.84,5.58-23.89,31.98-28.17"/><path class="cls-5" d="M108.08,322.12c2.11.32,4.09.63,6.1.85,1,.11,2,.19,3.01.25,1.01.05,2.03.06,3.11.08-.93.55-1.99.86-3.05,1.02-1.07.16-2.15.17-3.22.05-1.07-.12-2.12-.35-3.12-.72-1-.36-1.99-.83-2.82-1.52Z"/><path class="cls-4" d="M131.71,325.14l5.29-1.23c.86-.21,1.71-.44,2.56-.68l2.62-.82c-.58.77-1.36,1.36-2.19,1.83-.83.47-1.74.81-2.66,1.04-.92.22-1.87.34-2.82.33-.94,0-1.9-.11-2.8-.47Z"/><path class="cls-1" d="M139.08,299.17c-3.58,8.34,8.74,19.87,8.74,19.87,0,0-1.24-8.72,2.08-16.52,2.06-4.84-3.18-8.13-3.18-8.13,0,0-5.85.6-7.64,4.78Z"/><path class="cls-3" d="M291.67,557.94c3.51,9.81-3.86,17.28-12.05,18.63-8.19,1.35-17.21-3.36-17.62-13.74-.53-13.77,9.45-12.15,13.06-12.74,5.9-.97,12.12-4.67,16.6,7.86Z"/><path class="cls-6" d="M276.71,553.04c-1.96-2.21-9.9-9.33-7.18-23.47"/><path class="cls-2" d="M270.58,560.7c2.04,11.61-7.63,18.6-17.04,18.6s-18.59-6.92-17.04-18.6c2.05-15.49,12.9-11.84,17.04-11.84,6.78,0,14.44-2.99,17.04,11.84Z"/><path class="cls-8" d="M253.53,552.16c0-3.84,5.58-23.89,31.98-28.17"/><path class="cls-5" d="M246.87,550.78c2.11.32,4.09.63,6.1.85,1,.11,2,.19,3.01.25,1.01.05,2.03.06,3.11.08-.93.55-1.99.86-3.05,1.02-1.07.16-2.15.17-3.22.05-1.07-.12-2.12-.35-3.12-.72-1-.36-1.99-.83-2.82-1.52Z"/><path class="cls-4" d="M270.49,553.8l5.29-1.23c.86-.21,1.71-.44,2.56-.68l2.62-.82c-.58.77-1.36,1.36-2.19,1.83-.83.47-1.74.81-2.66,1.04-.92.22-1.87.34-2.82.33-.94,0-1.9-.11-2.8-.47Z"/><path class="cls-1" d="M277.87,527.83c-3.58,8.34,8.74,19.87,8.74,19.87,0,0-1.24-8.72,2.08-16.52,2.06-4.84-3.18-8.13-3.18-8.13,0,0-5.85.6-7.64,4.78Z"/><path class="cls-3" d="M289.8,181.85c3.51,9.81-3.86,17.28-12.05,18.63-8.19,1.35-17.21-3.36-17.62-13.74-.53-13.77,9.45-12.15,13.06-12.74,5.9-.97,12.12-4.67,16.6,7.86Z"/><path class="cls-6" d="M274.83,176.96c-1.96-2.21-9.9-9.33-7.18-23.47"/><path class="cls-2" d="M268.7,184.62c2.04,11.61-7.63,18.6-17.04,18.6s-18.59-6.92-17.04-18.6c2.05-15.49,12.9-11.84,17.04-11.84,6.78,0,14.44-2.99,17.04,11.84Z"/><path class="cls-8" d="M251.66,176.07c0-3.84,5.58-23.89,31.98-28.17"/><path class="cls-5" d="M244.99,174.7c2.11.32,4.09.63,6.1.85,1,.11,2,.19,3.01.25,1.01.05,2.03.06,3.11.08-.93.55-1.99.86-3.05,1.02-1.07.16-2.15.17-3.22.05-1.07-.12-2.12-.35-3.12-.72-1-.36-1.99-.83-2.82-1.52Z"/><path class="cls-4" d="M268.62,177.71l5.29-1.23c.86-.21,1.71-.44,2.56-.68l2.62-.82c-.58.77-1.36,1.36-2.19,1.83-.83.47-1.74.81-2.66,1.04-.92.22-1.87.34-2.82.33-.94,0-1.9-.11-2.8-.47Z"/><path class="cls-1" d="M275.99,151.75c-3.58,8.34,8.74,19.87,8.74,19.87,0,0-1.24-8.72,2.08-16.52,2.06-4.84-3.18-8.13-3.18-8.13,0,0-5.85.6-7.64,4.78Z"/><path class="cls-3" d="M390.83,361.45c3.51,9.81-3.86,17.28-12.05,18.63-8.19,1.35-17.21-3.36-17.62-13.74-.53-13.77,9.45-12.15,13.06-12.74,5.9-.97,12.12-4.67,16.6,7.86Z"/><path class="cls-6" d="M375.86,356.56c-1.96-2.21-9.9-9.33-7.18-23.47"/><path class="cls-2" d="M369.73,364.22c2.04,11.61-7.63,18.6-17.04,18.6s-18.59-6.92-17.04-18.6c2.05-15.49,12.9-11.84,17.04-11.84,6.78,0,14.44-2.99,17.04,11.84Z"/><path class="cls-8" d="M352.69,355.68c0-3.84,5.58-23.89,31.98-28.17"/><path class="cls-5" d="M346.02,354.3c2.11.32,4.09.63,6.1.85,1,.11,2,.19,3.01.25,1.01.05,2.03.06,3.11.08-.93.55-1.99.86-3.05,1.02-1.07.16-2.15.17-3.22.05-1.07-.12-2.12-.35-3.12-.72-1-.36-1.99-.83-2.82-1.52Z"/><path class="cls-4" d="M369.65,357.32l5.29-1.23c.86-.21,1.71-.44,2.56-.68l2.62-.82c-.58.77-1.36,1.36-2.19,1.83-.83.47-1.74.81-2.66,1.04-.92.22-1.87.34-2.82.33-.94,0-1.9-.11-2.8-.47Z"/><path class="cls-1" d="M377.02,331.35c-3.58,8.34,8.74,19.87,8.74,19.87,0,0-1.24-8.72,2.08-16.52,2.06-4.84-3.18-8.13-3.18-8.13,0,0-5.85.6-7.64,4.78Z"/><path class="cls-3" d="M459.01,138.49c3.51,9.81-3.86,17.28-12.05,18.63-8.19,1.35-17.21-3.36-17.62-13.74-.53-13.77,9.45-12.15,13.06-12.74,5.9-.97,12.12-4.67,16.6,7.86Z"/><path class="cls-6" d="M444.05,133.6c-1.96-2.21-9.9-9.33-7.18-23.47"/><path class="cls-2" d="M437.92,141.26c2.04,11.61-7.63,18.6-17.04,18.6s-18.59-6.92-17.04-18.6c2.05-15.49,12.9-11.84,17.04-11.84,6.78,0,14.44-2.99,17.04,11.84Z"/><path class="cls-8" d="M420.88,132.72c0-3.84,5.58-23.89,31.98-28.17"/><path class="cls-5" d="M414.21,131.34c2.11.32,4.09.63,6.1.85,1,.11,2,.19,3.01.25,1.01.05,2.03.06,3.11.08-.93.55-1.99.86-3.05,1.02-1.07.16-2.15.17-3.22.05-1.07-.12-2.12-.35-3.12-.72-1-.36-1.99-.83-2.82-1.52Z"/><path class="cls-4" d="M437.84,134.36l5.29-1.23c.86-.21,1.71-.44,2.56-.68l2.62-.82c-.58.77-1.36,1.36-2.19,1.83-.83.47-1.74.81-2.66,1.04-.92.22-1.87.34-2.82.33-.94,0-1.9-.11-2.8-.47Z"/><path class="cls-1" d="M445.21,108.39c-3.58,8.34,8.74,19.87,8.74,19.87,0,0-1.24-8.72,2.09-16.52,2.06-4.84-3.18-8.13-3.18-8.13,0,0-5.85.6-7.64,4.78Z"/><path class="cls-3" d="M636.15,201.62c3.51,9.81-3.86,17.28-12.05,18.63-8.19,1.35-17.21-3.36-17.62-13.74-.53-13.77,9.45-12.15,13.06-12.74,5.9-.97,12.12-4.67,16.6,7.86Z"/><path class="cls-6" d="M621.18,196.73c-1.96-2.21-9.9-9.33-7.18-23.47"/><path class="cls-2" d="M615.06,204.39c2.04,11.61-7.63,18.6-17.04,18.6s-18.59-6.92-17.04-18.6c2.05-15.49,12.9-11.84,17.04-11.84,6.78,0,14.44-2.99,17.04,11.84Z"/><path class="cls-8" d="M598.01,195.84c0-3.84,5.58-23.89,31.98-28.17"/><path class="cls-5" d="M591.35,194.47c2.11.32,4.09.63,6.1.85,1,.11,2,.19,3.01.25,1.01.05,2.03.06,3.11.08-.93.55-1.99.86-3.05,1.02-1.07.16-2.15.17-3.22.05-1.07-.12-2.12-.35-3.12-.72-1-.36-1.99-.83-2.82-1.52Z"/><path class="cls-4" d="M614.97,197.48l5.29-1.23c.86-.21,1.71-.44,2.56-.68l2.62-.82c-.58.77-1.36,1.36-2.19,1.83-.83.47-1.74.81-2.66,1.04-.92.22-1.87.34-2.82.33-.94,0-1.9-.11-2.8-.47Z"/><path class="cls-1" d="M622.35,171.52c-3.58,8.34,8.74,19.87,8.74,19.87,0,0-1.24-8.72,2.09-16.52,2.06-4.84-3.18-8.13-3.18-8.13,0,0-5.85.6-7.64,4.78Z"/><path class="cls-3" d="M743.6,378.4c3.51,9.81-3.86,17.28-12.05,18.63-8.19,1.35-17.21-3.36-17.62-13.74-.53-13.77,9.45-12.15,13.06-12.74,5.9-.97,12.12-4.67,16.6,7.86Z"/><path class="cls-6" d="M728.63,373.51c-1.96-2.21-9.9-9.33-7.18-23.47"/><path class="cls-2" d="M722.5,381.17c2.04,11.61-7.63,18.6-17.04,18.6s-18.59-6.92-17.04-18.6c2.05-15.49,12.9-11.84,17.04-11.84,6.78,0,14.44-2.99,17.04,11.84Z"/><path class="cls-8" d="M705.46,372.62c0-3.84,5.58-23.89,31.98-28.17"/><path class="cls-5" d="M698.79,371.25c2.11.32,4.09.63,6.1.85,1,.11,2,.19,3.01.25,1.01.05,2.03.06,3.11.08-.93.55-1.99.86-3.05,1.02-1.07.16-2.15.17-3.22.05-1.07-.12-2.12-.35-3.12-.72-1-.36-1.99-.83-2.82-1.52Z"/><path class="cls-4" d="M722.42,374.26l5.29-1.23c.86-.21,1.71-.44,2.56-.68l2.62-.82c-.58.77-1.36,1.36-2.19,1.83-.83.47-1.74.81-2.66,1.04-.92.22-1.87.34-2.82.33-.94,0-1.9-.11-2.8-.47Z"/><path class="cls-1" d="M729.79,348.3c-3.58,8.34,8.74,19.87,8.74,19.87,0,0-1.24-8.72,2.09-16.52,2.06-4.84-3.18-8.13-3.18-8.13,0,0-5.85.6-7.64,4.78Z"/><path class="cls-3" d="M683.26,568.78c3.51,9.81-3.86,17.28-12.05,18.63-8.19,1.35-17.21-3.36-17.62-13.74-.53-13.77,9.45-12.15,13.06-12.74,5.9-.97,12.12-4.67,16.6,7.86Z"/><path class="cls-6" d="M668.3,563.89c-1.96-2.21-9.9-9.33-7.18-23.47"/><path class="cls-2" d="M662.17,571.55c2.04,11.61-7.63,18.6-17.04,18.6s-18.59-6.92-17.04-18.6c2.05-15.49,12.9-11.84,17.04-11.84,6.78,0,14.44-2.99,17.04,11.84Z"/><path class="cls-8" d="M645.12,563c0-3.84,5.58-23.89,31.98-28.17"/><path class="cls-5" d="M638.46,561.63c2.11.32,4.09.63,6.1.85,1,.11,2,.19,3.01.25,1.01.05,2.03.06,3.11.08-.93.55-1.99.86-3.05,1.02-1.07.16-2.15.17-3.22.05-1.07-.12-2.12-.35-3.12-.72-1-.36-1.99-.83-2.82-1.52Z"/><path class="cls-4" d="M662.09,564.64l5.29-1.23c.86-.21,1.71-.44,2.56-.68l2.62-.82c-.58.77-1.36,1.36-2.19,1.83-.83.47-1.74.81-2.66,1.04-.92.22-1.87.34-2.82.33-.94,0-1.9-.11-2.8-.47Z"/><path class="cls-1" d="M669.46,538.68c-3.58,8.34,8.74,19.87,8.74,19.87,0,0-1.24-8.72,2.09-16.52,2.06-4.84-3.18-8.13-3.18-8.13,0,0-5.85.6-7.64,4.78Z"/><path class="cls-3" d="M574.78,385.53c3.51,9.81-3.86,17.28-12.05,18.63-8.19,1.35-17.21-3.36-17.62-13.74-.53-13.77,9.45-12.15,13.06-12.74,5.9-.97,12.12-4.67,16.6,7.86Z"/><path class="cls-6" d="M559.82,380.63c-1.96-2.21-9.9-9.33-7.18-23.47"/><path class="cls-2" d="M553.69,388.29c2.04,11.61-7.63,18.6-17.04,18.6s-18.59-6.92-17.04-18.6c2.05-15.49,12.9-11.84,17.04-11.84,6.78,0,14.44-2.99,17.04,11.84Z"/><path class="cls-8" d="M536.65,379.75c0-3.84,5.58-23.89,31.98-28.17"/><path class="cls-5" d="M529.98,378.37c2.11.32,4.09.63,6.1.85,1,.11,2,.19,3.01.25,1.01.05,2.03.06,3.11.08-.93.55-1.99.86-3.05,1.02-1.07.16-2.15.17-3.22.05-1.07-.12-2.12-.35-3.12-.72-1-.36-1.99-.83-2.82-1.52Z"/><path class="cls-4" d="M553.61,381.39l5.29-1.23c.86-.21,1.71-.44,2.56-.68l2.62-.82c-.58.77-1.36,1.36-2.19,1.83-.83.47-1.74.81-2.66,1.04-.92.22-1.87.34-2.82.33-.94,0-1.9-.11-2.8-.47Z"/><path class="cls-1" d="M560.98,355.42c-3.58,8.34,8.74,19.87,8.74,19.87,0,0-1.24-8.72,2.09-16.52,2.06-4.84-3.18-8.13-3.18-8.13,0,0-5.85.6-7.64,4.78Z"/><path class="cls-3" d="M469.23,535.55c3.51,9.81-3.86,17.28-12.05,18.63-8.19,1.35-17.21-3.36-17.62-13.74-.53-13.77,9.45-12.15,13.06-12.74,5.9-.97,12.12-4.67,16.6,7.86Z"/><path class="cls-6" d="M454.27,530.66c-1.96-2.21-9.9-9.33-7.18-23.47"/><path class="cls-2" d="M448.14,538.32c2.04,11.61-7.63,18.6-17.04,18.6s-18.59-6.92-17.04-18.6c2.05-15.49,12.9-11.84,17.04-11.84,6.78,0,14.44-2.99,17.04,11.84Z"/><path class="cls-8" d="M431.09,529.77c0-3.84,5.58-23.89,31.98-28.17"/><path class="cls-5" d="M424.43,528.4c2.11.32,4.09.63,6.1.85,1,.11,2,.19,3.01.25,1.01.05,2.03.06,3.11.08-.93.55-1.99.86-3.05,1.02-1.07.16-2.15.17-3.22.05-1.07-.12-2.12-.35-3.12-.72-1-.36-1.99-.83-2.82-1.52Z"/><path class="cls-4" d="M448.05,531.41l5.29-1.23c.86-.21,1.71-.44,2.56-.68l2.62-.82c-.58.77-1.36,1.36-2.19,1.83-.83.47-1.74.81-2.66,1.04-.92.22-1.87.34-2.82.33-.94,0-1.9-.11-2.8-.47Z"/><path class="cls-1" d="M455.43,505.45c-3.58,8.34,8.74,19.87,8.74,19.87,0,0-1.24-8.72,2.09-16.52,2.06-4.84-3.18-8.13-3.18-8.13,0,0-5.85.6-7.64,4.78Z"/><path class="cls-3" d="M559.43,703.96c3.51,9.81-3.86,17.28-12.05,18.63-8.19,1.35-17.21-3.36-17.62-13.74-.53-13.77,9.45-12.15,13.06-12.74,5.9-.97,12.12-4.67,16.6,7.86Z"/><path class="cls-6" d="M544.47,699.07c-1.96-2.21-9.9-9.33-7.18-23.47"/><path class="cls-2" d="M538.34,706.73c2.04,11.61-7.63,18.6-17.04,18.6s-18.59-6.92-17.04-18.6c2.05-15.49,12.9-11.84,17.04-11.84,6.78,0,14.44-2.99,17.04,11.84Z"/><path class="cls-8" d="M521.29,698.19c0-3.84,5.58-23.89,31.98-28.17"/><path class="cls-5" d="M514.63,696.81c2.11.32,4.09.63,6.1.85,1,.11,2,.19,3.01.25,1.01.05,2.03.06,3.11.08-.93.55-1.99.86-3.05,1.02-1.07.16-2.15.17-3.22.05-1.07-.12-2.12-.35-3.12-.72-1-.36-1.99-.83-2.82-1.52Z"/><path class="cls-4" d="M538.25,699.83l5.29-1.23c.86-.21,1.71-.44,2.56-.68l2.62-.82c-.58.77-1.36,1.36-2.19,1.83-.83.47-1.74.81-2.66,1.04-.92.22-1.87.34-2.82.33-.94,0-1.9-.11-2.8-.47Z"/><path class="cls-1" d="M545.63,673.86c-3.58,8.34,8.74,19.87,8.74,19.87,0,0-1.24-8.72,2.09-16.52,2.06-4.84-3.18-8.13-3.18-8.13,0,0-5.85.6-7.64,4.78Z"/><path class="cls-3" d="M326.86,703.96c3.51,9.81-3.86,17.28-12.05,18.63-8.19,1.35-17.21-3.36-17.62-13.74-.53-13.77,9.45-12.15,13.06-12.74,5.9-.97,12.12-4.67,16.6,7.86Z"/><path class="cls-6" d="M311.89,699.07c-1.96-2.21-9.9-9.33-7.18-23.47"/><path class="cls-2" d="M305.77,706.73c2.04,11.61-7.63,18.6-17.04,18.6s-18.59-6.92-17.04-18.6c2.05-15.49,12.9-11.84,17.04-11.84,6.78,0,14.44-2.99,17.04,11.84Z"/><path class="cls-8" d="M288.72,698.19c0-3.84,5.58-23.89,31.98-28.17"/><path class="cls-5" d="M282.06,696.81c2.11.32,4.09.63,6.1.85,1,.11,2,.19,3.01.25,1.01.05,2.03.06,3.11.08-.93.55-1.99.86-3.05,1.02-1.07.16-2.15.17-3.22.05-1.07-.12-2.12-.35-3.12-.72-1-.36-1.99-.83-2.82-1.52Z"/><path class="cls-4" d="M305.68,699.83l5.29-1.23c.86-.21,1.71-.44,2.56-.68l2.62-.82c-.58.77-1.36,1.36-2.19,1.83-.83.47-1.74.81-2.66,1.04-.92.22-1.87.34-2.82.33-.94,0-1.9-.11-2.8-.47Z"/><path class="cls-1" d="M313.06,673.86c-3.58,8.34,8.74,19.87,8.74,19.87,0,0-1.24-8.72,2.08-16.52,2.06-4.84-3.18-8.13-3.18-8.13,0,0-5.85.6-7.64,4.78Z"/><path class="cls-3" d="M160.13,470.53c3.51,9.81-3.86,17.28-12.05,18.63-8.19,1.35-17.21-3.36-17.62-13.74-.53-13.77,9.45-12.15,13.06-12.74,5.9-.97,12.12-4.67,16.6,7.86Z"/><path class="cls-6" d="M145.16,465.64c-1.96-2.21-9.9-9.33-7.18-23.47"/><path class="cls-2" d="M139.03,473.3c2.04,11.61-7.63,18.6-17.04,18.6s-18.59-6.92-17.04-18.6c2.05-15.49,12.9-11.84,17.04-11.84,6.78,0,14.44-2.99,17.04,11.84Z"/><path class="cls-8" d="M121.99,464.76c0-3.84,5.58-23.89,31.98-28.17"/><path class="cls-5" d="M115.32,463.38c2.11.32,4.09.63,6.1.85,1,.11,2,.19,3.01.25,1.01.05,2.03.06,3.11.08-.93.55-1.99.86-3.05,1.02-1.07.16-2.15.17-3.22.05-1.07-.12-2.12-.35-3.12-.72-1-.36-1.99-.83-2.82-1.52Z"/><path class="cls-4" d="M138.95,466.39l5.29-1.23c.86-.21,1.71-.44,2.56-.68l2.62-.82c-.58.77-1.36,1.36-2.19,1.83-.83.47-1.74.81-2.66,1.04-.92.22-1.87.34-2.82.33-.94,0-1.9-.11-2.8-.47Z"/><path class="cls-1" d="M146.32,440.43c-3.58,8.34,8.74,19.87,8.74,19.87,0,0-1.24-8.72,2.08-16.52,2.06-4.84-3.18-8.13-3.18-8.13,0,0-5.85.6-7.64,4.78Z"/></svg>